# xmcd
#
# Track frame offsets: 
#        150
#        15035
#        31558
#        49422
#        73739
#        87472
#        103638
#        126517
#        142417
#        157333
#        167705
#        179723
#        202252
#        217444
#
# Disc length: 3092 seconds
#
# Revision: 0
# Processed by: cddbd v1.5.2PL0 Copyright (c) Steve Scherf et al.
# Submitted via: ExactAudioCopy v0.90b4
#
DISCID=e10c120e
DTITLE=Greg Crowe - My Kinda People
DYEAR=2008
DGENRE=Country
TTITLE0=My Kinda People
TTITLE1=The All Blacks are coming to town
TTITLE2=Riding with Dad
TTITLE3=Copper
TTITLE4=Cowboys love riding the range
TTITLE5=Run the red
TTITLE6=Pope John Paul 2
TTITLE7=Mary from South Hillend
TTITLE8=Johnny, me and Slim
TTITLE9=Markus
TTITLE10=Dusty Spittle went to Nashville
TTITLE11=The Great Western Steeplechase
TTITLE12=He just wore a pick on his thumb
TTITLE13=Encore John Hore
EXTD=
EXTT0=
EXTT1=
EXTT2=
EXTT3=
EXTT4=
EXTT5=
EXTT6=
EXTT7=
EXTT8=
EXTT9=
EXTT10=
EXTT11=
EXTT12=
EXTT13=
PLAYORDER=
